<?xml version="1.0" standalone="no"?>
<!DOCTYPE svg PUBLIC "-//W3C//DTD SVG 20010904//EN"
 "http://www.w3.org/TR/2001/REC-SVG-20010904/DTD/svg10.dtd">
<svg version="1.0" xmlns="http://www.w3.org/2000/svg"
 width="500.000000pt" height="500.000000pt" viewBox="0 0 500.000000 500.000000"
 preserveAspectRatio="xMidYMid meet">
<metadata>
Created by potrace 1.11, written by Peter Selinger 2001-2013
</metadata>
<g transform="translate(0.000000,500.000000) scale(0.100000,-0.100000)"
fill="#000000" stroke="none">
<path d="M2308 4995 c-2 -1 -34 -6 -73 -9 -104 -10 -316 -52 -430 -85 -330
-96 -645 -263 -910 -484 -91 -76 -273 -262 -345 -352 -234 -294 -415 -674
-493 -1035 -42 -191 -52 -298 -52 -535 1 -169 9 -313 20 -348 2 -7 6 -30 9
-53 16 -133 77 -348 147 -527 178 -448 516 -867 919 -1137 355 -237 736 -375
1160 -419 83 -8 465 -7 505 2 11 2 47 8 80 12 63 7 72 9 150 25 28 6 60 12 72
14 58 12 190 52 300 92 588 215 1089 664 1366 1224 78 158 90 186 142 345 38
114 79 278 90 355 2 14 6 48 10 75 4 28 9 59 12 70 8 38 11 411 3 490 -14 137
-21 199 -26 217 -3 10 -7 30 -10 45 -10 61 -67 279 -75 288 -5 5 -9 16 -9 25
0 25 -85 232 -137 334 -86 167 -207 352 -324 491 -65 78 -270 277 -354 343
-195 155 -469 309 -675 381 -52 18 -104 37 -115 42 -58 26 -298 79 -450 100
-78 10 -498 22 -507 14z"/>
</g>
</svg>
